<svg viewBox="0 0 28.3 28.3" width="28.3" height="28.3" xmlns="http://www.w3.org/2000/svg">
    <path d="M16.4,6.6c3,0,5.4,2.4,5.4,5.4v9.6c0,3-2.4,5.4-5.4,5.4H6.9c-3,0-5.4-2.4-5.4-5.4v-9.6c0-3,2.4-5.4,5.4-5.4H16.4 M16.4,5.1H6.9C3.1,5.1,0,8.1,0,11.9v9.6c0,3.8,3.1,6.9,6.9,6.9h9.6c3.8,0,6.9-3.1,6.9-6.9v-9.6C23.3,8.1,20.2,5.1,16.4,5.1L16.4,5.1z"/>
    <path d="M21.5,1.5c3,0,5.4,2.4,5.4,5.4v9.6c0,2.3-1.5,4.3-3.5,5c0,0,0,0,0,0V12c0-3.8-3.1-7-7-7H6.9c0,0,0,0,0,0c0.7-2.1,2.7-3.5,5-3.5H21.5 M21.5,0h-9.6C8.1,0,5.1,3.1,5.1,6.9v0c0.6-0.2,1.2-0.3,1.8-0.3h9.4c3,0,5.5,2.4,5.5,5.5v9.4c0,0.6-0.1,1.3-0.3,1.8h0c3.8,0,6.9-3.1,6.9-6.9V6.9C28.3,3.1,25.3,0,21.5,0L21.5,0z"/>
</svg>