<?xml version="1.0" encoding="utf-8"?>
<!-- Generator: Adobe Illustrator 23.0.2, SVG Export Plug-In . SVG Version: 6.00 Build 0)  -->
<svg version="1.1" id="Слой_1" xmlns="http://www.w3.org/2000/svg" xmlns:xlink="http://www.w3.org/1999/xlink" x="0px" y="0px"
	 viewBox="0 0 401 401" style="enable-background:new 0 0 401 401;" xml:space="preserve">
<path d="M370.1,251.9c-5.5,0-10,4.5-10,10v88.7c0,16.5-13.4,29.9-30,30H49.9c-16.5,0-29.9-13.4-30-30V90.3c0-16.5,13.4-29.9,30-30
	h88.7c5.5,0,10-4.5,10-10s-4.5-10-10-10H49.9C22.4,40.4,0,62.7,0,90.3v260.3c0,27.6,22.4,49.9,49.9,49.9h280.2
	c27.6,0,49.9-22.4,49.9-49.9v-88.7C380.1,256.4,375.6,251.9,370.1,251.9z"/>
<path d="M376.1,14.7c-17.6-17.6-46-17.6-63.6,0L134.4,192.9c-1.2,1.2-2.1,2.7-2.6,4.4l-23.4,84.6c-1,3.5,0,7.2,2.6,9.7
	c2.5,2.5,6.3,3.5,9.7,2.6l84.6-23.4c1.7-0.5,3.2-1.3,4.4-2.6L387.9,90c17.5-17.6,17.5-46,0-63.6L376.1,14.7z M156.2,199.3L302,53.5
	l47,47L203.2,246.4L156.2,199.3z M146.8,218.2l37.6,37.6l-52,14.4L146.8,218.2z M373.7,75.8l-10.6,10.6l-47-47l10.6-10.6
	c9.7-9.7,25.6-9.7,35.3,0l11.7,11.7C383.5,50.3,383.5,66.1,373.7,75.8z"/>
</svg>
