<?xml version="1.0" encoding="utf-8"?>
<!-- Generator: Adobe Illustrator 23.0.2, SVG Export Plug-In . SVG Version: 6.00 Build 0)  -->
<svg version="1.1" id="Слой_1" xmlns="http://www.w3.org/2000/svg" xmlns:xlink="http://www.w3.org/1999/xlink" x="0px" y="0px"
	 viewBox="0 0 19.4 18.6" style="enable-background:new 0 0 19.4 18.6;" xml:space="preserve">
<style type="text/css">
	.st0{fill:none;stroke:#000000;stroke-width:1.3;stroke-miterlimit:10;}
</style>
<g>
	<path class="st0" d="M15.6,15c0,1.6-1.3,2.8-2.8,2.8H3.5c-1.6,0-2.8-1.3-2.8-2.8V6.3c0-1.6,1.3-2.8,2.8-2.8h9.3
		c1.6,0,2.8,1.3,2.8,2.8C15.7,6.3,15.7,15,15.6,15z"/>
</g>
<g>
	<path class="st0" d="M3.8,3.4c0,0,0-0.6,0-1.3s1.3-1.3,2.8-1.3h9.3c1.6,0,2.8,1.3,2.8,2.8v8.8c0,1.6-0.7,2.8-1.5,2.8s-1.5,0-1.5,0"
		/>
</g>
</svg>
