<?xml version="1.0" encoding="utf-8"?>
<!-- Generator: Adobe Illustrator 23.0.2, SVG Export Plug-In . SVG Version: 6.00 Build 0)  -->
<svg version="1.1" id="Layer_1" xmlns="http://www.w3.org/2000/svg" xmlns:xlink="http://www.w3.org/1999/xlink" x="0px" y="0px"
	 viewBox="0 0 512 512" style="enable-background:new 0 0 512 512;" xml:space="preserve">
<path d="M272.1,512H240c-26,0-47.1-21.1-47.1-47.1V454c-11-3.5-21.8-8-32.1-13.3l-7.7,7.7c-18.7,18.7-48.5,18.1-66.7,0l-22.7-22.7
	c-18.1-18.1-18.7-48,0-66.7l7.7-7.7c-5.3-10.3-9.8-21-13.3-32.1h-11c-26,0-47.1-21.1-47.1-47.1V240c0-26,21.1-47.1,47.1-47.1H58
	c3.5-11.1,8-21.8,13.3-32.1l-7.7-7.7c-18.7-18.6-18.2-48.5,0-66.7l22.7-22.7c18.2-18.2,48-18.6,66.7,0l7.7,7.7
	c10.3-5.3,21-9.8,32.1-13.3v-11c0-26,21.1-47.1,47.1-47.1H272c26,0,47.1,21.1,47.1,47.1V58c11,3.5,21.8,8,32.1,13.3l7.7-7.7
	c18.7-18.7,48.5-18.1,66.7,0l22.7,22.7c18.1,18.1,18.7,48,0,66.7l-7.7,7.7c5.3,10.3,9.8,21,13.3,32.1h10.9c26,0,47.1,21.1,47.1,47.1
	V272c0,26-21.1,47.1-47.1,47.1H454c-3.5,11-8,21.8-13.3,32.1l7.7,7.7c18.7,18.6,18.2,48.5,0,66.7l-22.7,22.7
	c-18.2,18.2-48,18.6-66.7,0l-7.7-7.7c-10.3,5.3-21,9.8-32.1,13.3v10.9C319.2,490.9,298.1,512,272.1,512z M165.7,409.2
	c14.3,8.5,29.7,14.9,45.8,19c6.6,1.7,11.3,7.7,11.3,14.5v22.1c0,9.4,7.7,17.1,17.1,17.1H272c9.4,0,17.1-7.7,17.1-17.1v-22.1
	c0-6.8,4.6-12.8,11.3-14.5c16.1-4.2,31.5-10.6,45.8-19c5.9-3.5,13.4-2.5,18.2,2.3l15.7,15.7c6.8,6.8,17.6,6.6,24.2,0l22.7-22.7
	c6.6-6.6,6.8-17.4,0-24.2l-15.7-15.7c-4.8-4.8-5.8-12.3-2.3-18.2c8.5-14.3,14.9-29.7,19-45.8c1.7-6.6,7.7-11.3,14.5-11.3h22.1
	c9.4,0,17.1-7.7,17.1-17.1v-32.1c0-9.4-7.7-17.1-17.1-17.1h-22.1c-6.8,0-12.8-4.6-14.5-11.3c-4.2-16.1-10.6-31.5-19-45.8
	c-3.5-5.9-2.5-13.4,2.3-18.2L427,132c6.8-6.8,6.6-17.6,0-24.2l-22.7-22.7c-6.6-6.6-17.5-6.8-24.2,0l-15.7,15.7
	c-4.8,4.8-12.4,5.8-18.2,2.3c-14.3-8.5-29.7-14.9-45.8-19c-6.6-1.7-11.3-7.7-11.3-14.5V47.1c0-9.4-7.7-17.1-17.1-17.1h-32.1
	c-9.4,0-17.1,7.7-17.1,17.1v22.1c0,6.8-4.6,12.8-11.3,14.5c-16.1,4.2-31.5,10.6-45.8,19c-5.9,3.5-13.4,2.5-18.2-2.3l-15.7-15.7
	c-6.8-6.8-17.6-6.6-24.2,0l-22.7,22.7c-6.6,6.6-6.8,17.4,0,24.2l15.7,15.7c4.8,4.8,5.8,12.3,2.3,18.2c-8.5,14.3-14.9,29.7-19,45.8
	c-1.7,6.6-7.7,11.3-14.5,11.3H47.1c-9.4,0-17.1,7.7-17.1,17.1v32.1c0,9.4,7.7,17.1,17.1,17.1h22.1c6.8,0,12.8,4.6,14.5,11.3
	c4.2,16.1,10.6,31.5,19,45.8c3.5,5.9,2.5,13.4-2.3,18.2l-15.7,15.7c-6.8,6.8-6.6,17.6,0,24.2l22.7,22.7c6.6,6.6,17.5,6.8,24.2,0
	l15.7-15.7C151,407.9,158.5,404.9,165.7,409.2L165.7,409.2z"/>
<path d="M256,367.4c-61.4,0-111.4-50-111.4-111.4s50-111.4,111.4-111.4s111.4,50,111.4,111.4S317.4,367.4,256,367.4z M256,174.6
	c-44.9,0-81.4,36.5-81.4,81.4s36.5,81.4,81.4,81.4s81.4-36.5,81.4-81.4S300.9,174.6,256,174.6L256,174.6z"/>
</svg>
