<svg viewBox="0 0 28.3 28.3" width="28" height="28" xmlns="http://www.w3.org/2000/svg"> <defs> <linearGradient id="0dc39f" x1="0%" y1="0%" x2="100%" y2="0%"> <stop offset="0%" stop-color="#0dc39f"/> <stop offset="100%" stop-color="#38ef7d"/> </linearGradient> <mask id="maximize" maskUnits="userSpaceOnUse" x="0" y="0" width="28" height="28"> <path d="M21.5,2c2.7,0,4.9,2.2,4.9,4.9v14.6c0,2.7-2.2,4.9-4.9,4.9H6.9c-2.7,0-4.9-2.2-4.9-4.9V6.9C2,4.2,4.2,2,6.9,2H21.5 M21.5,0H6.9C3.1,0,0,3.1,0,6.9v14.6c0,3.8,3.1,6.9,6.9,6.9h14.6c3.8,0,6.9-3.1,6.9-6.9V6.9C28.3,3.1,25.3,0,21.5,0L21.5,0z" fill="white"/> </mask> </defs> <g mask="url(#maximize)"> <rect class="original" x="0" y="0" width="28" height="28" fill="white" /> <rect class="gradient" x="0" y="0" width="28" height="28" fill="url(#0dc39f)" /> </g> </svg>