<svg viewBox="0 0 512 512" width="512" height="512" xmlns="http://www.w3.org/2000/svg"> <defs> <linearGradient id="0dc39f" x1="0%" y1="0%" x2="100%" y2="0%"> <stop offset="0%" stop-color="#0dc39f"/> <stop offset="100%" stop-color="#38ef7d"/> </linearGradient> <mask id="arrow" maskUnits="userSpaceOnUse" x="0" y="0" width="512" height="512"> <path d="M145.188,238.575l215.5-215.5c5.3-5.3,5.3-13.8,0-19.1s-13.8-5.3-19.1,0l-225.1,225.1c-5.3,5.3-5.3,13.8,0,19.1l225.1,225 c2.6,2.6,6.1,4,9.5,4s6.9-1.3,9.5-4c5.3-5.3,5.3-13.8,0-19.1L145.188,238.575z" fill="white"/> </mask> </defs> <g mask="url(#arrow)"> <rect class="original" x="0" y="0" width="512" height="512" fill="white" /> <rect class="gradient" x="0" y="0" width="512" height="512" fill="url(#0dc39f)" /> </g> </svg>