<svg viewBox="0 0 512 512" width="512" height="512" xmlns="http://www.w3.org/2000/svg"> <defs> <linearGradient id="D31027" x1="0%" y1="0%" x2="100%" y2="0%"> <stop offset="0%" stop-color="#D31027"/> <stop offset="100%" stop-color="#EA384D"/> </linearGradient> <mask id="cross" maskUnits="userSpaceOnUse" x="0" y="0" width="512" height="512"> <path d="M284.286,256.002L506.143,34.144c7.811-7.811,7.811-20.475,0-28.285c-7.811-7.81-20.475-7.811-28.285,0L256,227.717L34.143,5.859c-7.811-7.811-20.475-7.811-28.285,0c-7.81,7.811-7.811,20.475,0,28.285l221.857,221.857L5.858,477.859c-7.811,7.811-7.811,20.475,0,28.285c3.905,3.905,9.024,5.857,14.143,5.857c5.119,0,10.237-1.952,14.143-5.857L256,284.287l221.857,221.857c3.905,3.905,9.024,5.857,14.143,5.857s10.237-1.952,14.143-5.857c7.811-7.811,7.811-20.475,0-28.285L284.286,256.002z" fill="white"/> </mask> </defs> <g mask="url(#cross)"> <rect className="original" x="0" y="0" width="512" height="512" fill="white" /> <rect className="gradient" x="0" y="0" width="512" height="512" fill="url(#D31027)" /> </g> </svg>