<svg viewBox="0 0 512 512" width="512" height="512" xmlns="http://www.w3.org/2000/svg"> <defs> <linearGradient id="fdfc47" x1="0%" y1="0%" x2="100%" y2="0%"> <stop offset="0%" stop-color="#fdfc47"/> <stop offset="100%" stop-color="#fdc830"/> </linearGradient> <mask id="warning" maskUnits="userSpaceOnUse" x="0" y="0" width="512" height="512"> <path d="M499.022,224.671L287.329,12.978C278.961,4.609,267.834,0,256,0s-22.961,4.609-31.329,12.978L12.978,224.671 C4.609,233.039,0,244.165,0,256c0,11.835,4.609,22.961,12.978,31.329l211.693,211.693C233.039,507.391,244.166,512,256,512 s22.961-4.609,31.329-12.978l211.693-211.693C507.391,278.961,512,267.834,512,256C512,244.166,507.391,233.039,499.022,224.671z M478.136,266.443L266.443,478.136c-5.758,5.758-15.128,5.758-20.886,0L33.865,266.443c-5.758-5.759-5.758-15.128,0-20.886 L245.556,33.865c2.879-2.879,6.662-4.318,10.443-4.318s7.565,1.439,10.443,4.318l211.693,211.693 C483.893,251.315,483.893,260.685,478.136,266.443z" fill="white"/><path d="M289.267,119.575c-6.727-7.159-16.218-11.265-26.041-11.265h-14.452c-9.823,0-19.315,4.106-26.041,11.265 c-6.726,7.159-10.233,16.889-9.621,26.694l7.226,115.615c1.176,18.785,16.841,33.5,35.661,33.5s34.485-14.715,35.661-33.501 l7.226-115.614C299.5,136.464,295.994,126.734,289.267,119.575z M262.18,260.039c-0.204,3.256-2.918,5.806-6.18,5.806 c-3.262,0-5.977-2.551-6.18-5.805l-7.226-115.614c-0.146-2.326,0.983-3.896,1.667-4.626c0.685-0.73,2.183-1.952,4.513-1.952 h14.452c2.331,0,3.828,1.223,4.513,1.952c0.684,0.729,1.813,2.3,1.667,4.626L262.18,260.039z" fill="white"/><path d="M256,315.076c-24.431,0-44.307,19.876-44.307,44.307s19.876,44.307,44.307,44.307s44.307-19.876,44.307-44.307 S280.431,315.076,256,315.076z M256,374.152c-8.144,0-14.769-6.625-14.769-14.769s6.625-14.769,14.769-14.769 s14.769,6.625,14.769,14.769S264.144,374.152,256,374.152z" fill="white"/> </mask> </defs> <g mask="url(#warning)"> <rect class="original" x="0" y="0" width="512" height="512" fill="white" /> <rect class="gradient" x="0" y="0" width="512" height="512" fill="url(#fdfc47)" /> </g> </svg>