<?xml version="1.0" encoding="utf-8"?>
<!-- Generator: Adobe Illustrator 23.0.2, SVG Export Plug-In . SVG Version: 6.00 Build 0)  -->
<svg version="1.1" id="Capa_1" xmlns="http://www.w3.org/2000/svg" xmlns:xlink="http://www.w3.org/1999/xlink" x="0px" y="0px"
	 viewBox="0 0 512 512" style="enable-background:new 0 0 512 512;" xml:space="preserve">
<g>
	<g>
		<path d="M0,219.8c0,58.7,22.9,113.9,64.4,155.4c41.5,41.5,96.7,64.4,155.4,64.4c53.7,0,104.4-19.1,144.5-54.1l122.1,122.1
			c2.9,2.9,6.8,4.4,10.6,4.4c3.8,0,7.7-1.5,10.6-4.4c5.9-5.9,5.9-15.4,0-21.2L385.5,364.3c35-40,54.1-90.8,54.1-144.5
			c0-58.7-22.9-113.9-64.4-155.4C333.7,22.9,278.5,0,219.8,0C161.1,0,105.9,22.9,64.4,64.4C22.9,105.9,0,161.1,0,219.8z M85.6,85.6
			c37-37,85.6-55.5,134.2-55.5c48.6,0,97.2,18.5,134.2,55.5c74,74,74,194.4,0,268.4c-74,74-194.4,74-268.4,0
			C11.6,280,11.6,159.6,85.6,85.6z"/>
	</g>
</g>
</svg>
