<?xml version="1.0" encoding="iso-8859-1"?>
<!-- Generator: Adobe Illustrator 19.0.0, SVG Export Plug-In . SVG Version: 6.00 Build 0)  -->
<svg version="1.1" id="Capa_1" xmlns="http://www.w3.org/2000/svg" xmlns:xlink="http://www.w3.org/1999/xlink" x="0px" y="0px"
	 viewBox="0 0 512 512" style="enable-background:new 0 0 512 512;" xml:space="preserve">
<g>
	<g>
		<g>
			<path d="M432,40H80C35.888,40,0,75.888,0,120v55c0,11.046,8.954,20,20,20s20-8.954,20-20v-55c0-22.056,17.944-40,40-40h352
				c22.056,0,40,17.944,40,40v272c0,22.056-17.944,40-40,40h-52c-11.046,0-20,8.954-20,20c0,11.046,8.954,20,20,20h52
				c44.112,0,80-35.888,80-80V120C512,75.888,476.112,40,432,40z"/>
			<path d="M382,198.462V250c0,11.046,8.954,20,20,20c11.046,0,20-8.954,20-20v-68.504C422,153.101,398.899,130,370.504,130H302
				c-11.046,0-20,8.954-20,20s8.954,20,20,20h51.89l-58.709,59.443C283.143,222.184,269.052,218,254,218H80
				c-44.112,0-80,35.888-80,80v94c0,44.112,35.888,80,80,80h174c44.112,0,80-35.888,80-80v-94c0-14.577-3.938-28.243-10.778-40.026
				L382,198.462z M294,392c0,22.056-17.944,40-40,40H80c-22.056,0-40-17.944-40-40v-94c0-22.056,17.944-40,40-40h174
				c22.056,0,40,17.944,40,40V392z"/>
		</g>
	</g>
</g>
<g>
</g>
<g>
</g>
<g>
</g>
<g>
</g>
<g>
</g>
<g>
</g>
<g>
</g>
<g>
</g>
<g>
</g>
<g>
</g>
<g>
</g>
<g>
</g>
<g>
</g>
<g>
</g>
<g>
</g>
</svg>
