<svg viewBox="0 0 24 24" width="24" height="24" xmlns="http://www.w3.org/2000/svg"> <defs> <linearGradient id="0dc39f" x1="0%" y1="0%" x2="100%" y2="0%"> <stop offset="0%" stop-color="#0dc39f"/> <stop offset="100%" stop-color="#38ef7d"/> </linearGradient> <mask id="development" maskUnits="userSpaceOnUse" x="0" y="0" width="24" height="24"> <path d="m6.75 18c-.192 0-.384-.073-.53-.22-.293-.293-.293-.768 0-1.061l2.719-2.719-2.72-2.72c-.293-.293-.293-.768 0-1.061s.768-.293 1.061 0l3.25 3.25c.293.293.293.768 0 1.061l-3.25 3.25c-.146.147-.338.22-.53.22z" fill="white"/><path d="m17.25 18h-4.5c-.414 0-.75-.336-.75-.75s.336-.75.75-.75h4.5c.414 0 .75.336.75.75s-.336.75-.75.75z" fill="white"/><path d="m21.25 23h-18.5c-1.517 0-2.75-1.233-2.75-2.75v-16.5c0-1.517 1.233-2.75 2.75-2.75h18.5c1.517 0 2.75 1.233 2.75 2.75v16.5c0 1.517-1.233 2.75-2.75 2.75zm-18.5-20.5c-.689 0-1.25.561-1.25 1.25v16.5c0 .689.561 1.25 1.25 1.25h18.5c.689 0 1.25-.561 1.25-1.25v-16.5c0-.689-.561-1.25-1.25-1.25z" fill="white"/><path d="m23.25 6h-22.5c-.414 0-.75-.336-.75-.75s.336-.75.75-.75h22.5c.414 0 .75.336.75.75s-.336.75-.75.75z" fill="white"/> </mask> </defs> <g mask="url(#development)"> <rect class="original" x="0" y="0" width="24" height="24" fill="white" /> <rect class="gradient" x="0" y="0" width="24" height="24" fill="url(#0dc39f)" /> </g> </svg>