<svg width="330" height="330" xmlns="http://www.w3.org/2000/svg">
   <path d="M165,25c37.4,0,72.6,14.6,99,41s41,61.6,41,99s-14.6,72.6-41,99s-61.6,41-99,41s-72.6-14.6-99-41s-41-61.6-41-99s14.6-72.6,41-99S127.6,25,165,25 M165,0C73.9,0,0,73.9,0,165s73.9,165,165,165s165-73.9,165-165S256.1,0,165,0L165,0z"/>
   <path d="M166.2,260L166.2,260c-7.8,0-14.2-6.3-14.2-14.2v-91.7c0-7.8,6.3-14.2,14.2-14.2h0c7.8,0,14.2,6.3,14.2,14.2v91.7C180.4,253.7,174.1,260,166.2,260z"/>
   <circle cx="166.2" cy="96.4" r="14.2"/>
</svg>