<?xml version="1.0" encoding="utf-8"?>
<!-- Generator: Adobe Illustrator 23.0.2, SVG Export Plug-In . SVG Version: 6.00 Build 0)  -->
<svg version="1.1" id="Capa_1" xmlns="http://www.w3.org/2000/svg" xmlns:xlink="http://www.w3.org/1999/xlink" x="0px" y="0px"
	 viewBox="0 0 500.7 512" style="enable-background:new 0 0 500.7 512;" xml:space="preserve">
<g>
	<path d="M155.4,31.8C128.8,0.1,81.5-4.1,49.7,22.6l-23,19.3c-31.7,26.6-35.8,74-9.2,105.7c5.3,6.4,14.8,7.2,21.1,1.8l46-38.6
		c3.6,4.3,9.2,11.1,10.3,12.2c-43.7,42.1-69.5,99.7-69.5,163c0,60.5,23.8,119,69.5,163l-32.2,38.4c-5.3,6.3-4.5,15.8,1.8,21.1
		c6.3,5.3,15.8,4.5,21.1-1.8l32.1-38.3C156,496.7,202,512,250.3,512s94.3-15.3,132.6-43.6l32.1,38.3c5.3,6.3,14.8,7.2,21.1,1.8
		c6.3-5.3,7.2-14.8,1.8-21.1l-32-38.4c43.9-42.3,69.5-100.1,69.5-163c0-60.4-23.8-118.9-69.5-163c1.2-1.3-1.1,1.4,10.3-12.2l46,38.6
		c6.3,5.3,15.8,4.5,21.1-1.8c26.6-31.7,22.4-79.1-9.2-105.7l-23-19.3C419.3-4,371.9,0.1,345.3,31.8c-2.6,3-3.8,7-3.5,10.9
		s2.3,7.6,5.3,10.2l46,38.6c-11.4,13.6-9.2,10.9-10.1,12.2c-34.3-25.4-74.9-40.3-117.6-43.2V30h30c8.3,0,15-6.7,15-15s-6.7-15-15-15
		h-90c-8.3,0-15,6.7-15,15s6.7,15,15,15h30v30.5c-42.8,2.8-83.3,17.8-117.6,43.2c-0.9-1.2,0.5,0.5-10.1-12.2l46-38.6
		C159.9,47.6,160.7,38.2,155.4,31.8z M431.7,45.5l23,19.3c15,12.6,19.7,32.9,13.2,50.3c-9.2-7.7-78.8-66.1-88-73.8
		C395.9,31.9,416.7,33,431.7,45.5L431.7,45.5z M445.4,286c0,108.1-87.5,196-195,196s-195-87.9-195-196s87.5-196,195-196
		S445.4,177.9,445.4,286z M32.8,115.1C26.3,97.7,31.1,77.4,46,64.8l23-19.3c15.4-12.9,36.3-13.5,51.8-4.3L32.8,115.1z"/>
	<path d="M250.4,180c-8.3,0-15,6.7-15,15v84.9l-55.7,56.6c-5.8,5.9-5.7,15.4,0.2,21.2c5.9,5.8,15.4,5.7,21.2-0.2l60-61
		c2.8-2.8,4.3-6.6,4.3-10.5v-91C265.4,186.7,258.7,180,250.4,180L250.4,180z"/>
	<circle cx="250.4" cy="135" r="15"/>
	<circle cx="250.4" cy="437" r="15"/>
	<circle cx="144.3" cy="178.9" r="15"/>
	<circle cx="356.4" cy="393.1" r="15"/>
	<circle cx="100.4" cy="286" r="15"/>
	<circle cx="400.4" cy="286" r="15"/>
	<circle cx="144.3" cy="393.1" r="15"/>
	<circle cx="356.4" cy="178.9" r="15"/>
</g>
</svg>
