<?xml version="1.0" encoding="utf-8"?>
<!-- Generator: Adobe Illustrator 23.0.2, SVG Export Plug-In . SVG Version: 6.00 Build 0)  -->
<svg version="1.1" id="Слой_1" xmlns="http://www.w3.org/2000/svg" xmlns:xlink="http://www.w3.org/1999/xlink" x="0px" y="0px"
	 viewBox="0 0 638 404.1" style="enable-background:new 0 0 638 404.1;" xml:space="preserve">
<path d="M510.4,148.9c-5.1,0-10.2,0.3-15.2,1c-13.8-44.7-55-75.3-101.8-75.4c-11.6,0-23.2,1.9-34.2,5.8
	c-27.3-58.9-91.8-90.9-155.1-77S95.5,73.4,95.7,138.3c0,11.2,1.4,22.4,4.2,33.3c-60.3,9.2-103.5,63.3-99,124.2s55,108,116.1,108.3
	h393.4c70.5,0,127.6-57.1,127.6-127.6S580.9,148.9,510.4,148.9z M510.4,382.8H116.9c-52.4,0.2-95.2-41.8-96-94.2
	c-0.7-52.4,40.8-95.7,93.2-97c3.4-0.1,6.5-1.8,8.4-4.6s2.3-6.4,1.3-9.6C102.6,117,134,50.9,194.1,29s126.6,8.7,149.2,68.6
	c1.1,2.8,3.2,5,5.9,6.1c2.8,1.2,5.9,1.1,8.5-0.2c11.1-5.2,23.2-7.9,35.5-7.9c40.5,0.1,75.3,28.6,83.4,68.2c1.2,5.8,6.8,9.5,12.6,8.3
	c6.9-1.4,14-2.1,21.1-2.1c58.7,0,106.4,47.6,106.4,106.4C616.8,335.2,569.1,382.8,510.4,382.8z"/>
</svg>
