<?xml version="1.0" encoding="utf-8"?>
<!-- Generator: Adobe Illustrator 23.0.2, SVG Export Plug-In . SVG Version: 6.00 Build 0)  -->
<svg version="1.1" id="Слой_1" xmlns="http://www.w3.org/2000/svg" xmlns:xlink="http://www.w3.org/1999/xlink" x="0px" y="0px"
	 viewBox="0 0 511 319" style="enable-background:new 0 0 511 319;" xml:space="preserve">
<path d="M389.3,119.7c0-10.7-8.7-19.5-19.5-19.5c-10.7,0-19.5,8.7-19.5,19.5s8.7,19.5,19.5,19.5
	C380.5,139.1,389.3,130.4,389.3,119.7z M369.8,124.2c-2.5,0-4.5-2-4.5-4.5s2-4.5,4.5-4.5s4.5,2,4.5,4.5
	C374.3,122.1,372.3,124.2,369.8,124.2z"/>
<path d="M431.4,100.2c-10.7,0-19.5,8.7-19.5,19.5s8.7,19.5,19.5,19.5c10.7,0,19.5-8.7,19.5-19.5S442.1,100.2,431.4,100.2z
	 M431.4,124.2c-2.5,0-4.5-2-4.5-4.5s2-4.5,4.5-4.5s4.5,2,4.5,4.5C435.9,122.1,433.9,124.2,431.4,124.2z"/>
<path d="M185.7,148.3c-19.6,0-35.5,15.9-35.5,35.5s15.9,35.5,35.5,35.5s35.5-15.9,35.5-35.5S205.3,148.3,185.7,148.3z M185.7,204.3
	c-11.3,0-20.5-9.2-20.5-20.5s9.2-20.5,20.5-20.5s20.5,9.2,20.5,20.5S197,204.3,185.7,204.3z"/>
<path d="M507.6,234.5l-36-148.8C466.4,64.3,456.1,48,441,37.2c-3.1-2.2-6.4-4.2-9.9-5.9v-3.1c0-15.6-12.7-28.2-28.2-28.2H386
	c-15.6,0-28.2,12.7-28.2,28.2v4.3c-6,3.3-10.8,7.3-13.7,11.7h-72.2c-4.1,0-7.5,3.3-7.5,7.5c0,4.1,3.4,7.5,7.5,7.5h69.4v15.3
	c0,8.4-6.9,15.3-15.3,15.3H184.9c-8.4,0-15.3-6.9-15.3-15.3V59.2h67.8c4.1,0,7.5-3.4,7.5-7.5s-3.3-7.5-7.5-7.5h-70.5
	c-2.9-4.4-7.6-8.4-13.6-11.7v-4.3c0-15.6-12.7-28.2-28.2-28.2h-16.7C92.6,0.1,80,12.7,80,28.3v3.1c-3.5,1.7-6.8,3.6-9.9,5.9
	C55,48.1,44.7,64.4,39.5,85.8l-36,148.8C-1.8,256.5-1,275,6,289.6c6.2,13.1,17.1,22.3,31.3,26.7c30.6,9.4,66.3-6.3,76.6-33.6
	l17.3-46.1c2.2-5.9,4-6.7,4-6.7c0.2,0,1.6,0.1,4.1,2c24.2,22,64,21.1,90.1-1.8h52.1c12.1,10.6,27.5,16.8,43.6,17.7
	c17.6,0.9,34.1-4.7,46.5-15.9c2.9-2.1,4.1-2,4.1-2s1.8,0.8,4,6.7l17.3,46.1c8.2,21.9,32.9,36.3,58.1,36.3c6.2,0,12.5-0.9,18.5-2.7
	c14.3-4.4,25.1-13.6,31.3-26.7C512,274.9,512.9,256.4,507.6,234.5z M386,15h16.8c6.5,0,11.9,4.7,13,10.9c-6.2-1.5-12.7-2.3-19.5-2.3
	c-0.1,0-0.2,0-0.3,0c-8.1,0-16,1.1-23.2,3.1C373.7,20.1,379.3,15,386,15z M108.2,15H125c6.8,0,12.4,5.1,13.2,11.7
	c-7.2-2-15.1-3.1-23.2-3.1c-0.1,0-0.2,0-0.3,0c-6.8,0-13.3,0.8-19.5,2.3C96.3,19.7,101.7,15,108.2,15z M469.3,301.9
	c-20.7,6.4-50-2.7-58.2-24.5l-17.3-46.1c-3.4-8.9-7.9-14.1-13.9-15.8c-5.5-1.6-11.4,0-17.6,4.6c-0.2,0.1-0.4,0.3-0.6,0.5
	c-19.3,17.7-51.7,16.2-72.2-3.4c-1.4-1.3-3.2-2.1-5.2-2.1h-57.9c-1.9,0-3.8,0.7-5.2,2.1c-20.6,19.6-53,21.1-72.2,3.4
	c-0.2-0.2-0.4-0.3-0.6-0.5c-6.2-4.7-12.1-6.2-17.6-4.6c-6,1.7-10.5,6.9-13.8,15.8l-17.3,46.1c-8.2,21.8-37.4,30.9-58.1,24.5
	C18.5,294.8,9.9,271.5,18,238L54,89.2c6.5-26.9,21-39.8,35.4-45.8c0.6-0.2,1.2-0.4,1.7-0.7c8.6-3.3,17-4.2,23.6-4.2
	c11.2,0,20.8,2.4,27.8,5.5c0.1,0.1,0.2,0.1,0.4,0.2c6.4,2.8,10.6,6.2,11.7,8.8v21.6c0,16.7,13.6,30.3,30.3,30.3h141.2
	c16.7,0,30.3-13.6,30.3-30.3V53c1.1-2.6,5.2-5.9,11.4-8.7c0.4-0.1,0.7-0.3,1.1-0.5c7-3,16.3-5.3,27.2-5.3h0.3c6.6,0,15,0.9,23.6,4.2
	c0.5,0.3,1.1,0.5,1.7,0.7c14.4,6,28.9,18.9,35.4,45.8l36,148.8C501.1,271.5,492.5,294.8,469.3,301.9z"/>
<path d="M331.1,148.3c-19.6,0-35.5,15.9-35.5,35.5s15.9,35.5,35.5,35.5s35.5-15.9,35.5-35.5S350.7,148.3,331.1,148.3z M331.1,204.3
	c-11.3,0-20.5-9.2-20.5-20.5s9.2-20.5,20.5-20.5s20.5,9.2,20.5,20.5S342.5,204.3,331.1,204.3z"/>
<path d="M134,100.1h-2.3v-2.3c0-12.7-10.3-23-23-23s-23,10.3-23,23v2.3h-2.3c-12.7,0-23,10.3-23,23s10.3,23,23,23h2.3v2.3
	c0,12.7,10.3,23,23,23s23-10.3,23-23v-2.3h2.3c12.7,0,23-10.3,23-23S146.7,100.1,134,100.1z M134,131.1h-9.8c-4.1,0-7.5,3.3-7.5,7.5
	v9.8c0,4.4-3.6,8-8,8s-8-3.6-8-8v-9.8c0-4.1-3.4-7.5-7.5-7.5h-9.8c-4.4,0-8-3.6-8-8s3.6-8,8-8h9.8c4.1,0,7.5-3.4,7.5-7.5v-9.8
	c0-4.4,3.6-8,8-8s8,3.6,8,8v9.8c0,4.1,3.4,7.5,7.5,7.5h9.8c4.4,0,8,3.6,8,8S138.4,131.1,134,131.1z"/>
<path d="M235.9,127.8H225c-4.1,0-7.5,3.4-7.5,7.5s3.3,7.5,7.5,7.5h10.9c4.1,0,7.5-3.3,7.5-7.5S240,127.8,235.9,127.8z"/>
<path d="M286,127.8h-10.9c-4.1,0-7.5,3.4-7.5,7.5s3.4,7.5,7.5,7.5H286c4.1,0,7.5-3.3,7.5-7.5S290.1,127.8,286,127.8z"/>
<path d="M263.8,167.1H253c-4.1,0-7.5,3.3-7.5,7.5s3.4,7.5,7.5,7.5h10.9c4.1,0,7.5-3.4,7.5-7.5S268,167.1,263.8,167.1z"/>
</svg>
