<?xml version="1.0" encoding="utf-8"?>
<!-- Generator: Adobe Illustrator 23.0.2, SVG Export Plug-In . SVG Version: 6.00 Build 0)  -->
<svg version="1.1" id="Capa_1" xmlns="http://www.w3.org/2000/svg" xmlns:xlink="http://www.w3.org/1999/xlink" x="0px" y="0px"
	 viewBox="0 0 461.2 512" style="enable-background:new 0 0 461.2 512;" xml:space="preserve">
<path d="M443.8,387.1c-88.8,7.5-173.6-38.1-216-116.3S193.4,96.6,248.1,26.3c3.9-5,4.5-11.9,1.5-17.5c-3-5.6-9.1-8.8-15.4-8.3
	c-35.4,3-69.1,13.1-100.2,30C9.8,97.8-36.4,253.5,30.9,377.6s223,170.3,347.1,103c31.1-16.9,58-39.7,79.8-67.7
	c3.9-5,4.5-11.9,1.4-17.5S450.2,386.6,443.8,387.1z M362.7,452.5C254.2,511.3,117.9,470.9,59,362.3S40.6,117.5,149.1,58.7
	c16.8-9.1,34.4-15.9,52.7-20.5c-42.9,76-44.6,169.7-2.2,247.9S321.5,414,408.6,419.4C394.9,432.3,379.5,443.4,362.7,452.5z"/>
</svg>
