<svg xmlns="http://www.w3.org/2000/svg" xmlns:xlink="http://www.w3.org/1999/xlink" version="1.1" id="Capa_1" x="0px" y="0px" viewBox="0 0 512 512" style="enable-background:new 0 0 512 512;" xml:space="preserve">
		<path d="M430.4,461.248C348.752,425.536,296,344.976,296,256S348.752,86.464,430.4,50.752c5.84-2.544,9.6-8.288,9.6-14.656    S436.24,24,430.4,21.44C397.872,7.216,363.408,0,328,0C186.848,0,72,114.848,72,256s114.848,256,256,256    c35.408,0,69.872-7.216,102.4-21.44c5.824-2.56,9.6-8.304,9.6-14.672C440,469.52,436.24,463.792,430.4,461.248z M328,480    c-123.52,0-224-100.48-224-224S204.48,32,328,32c19.072,0,37.824,2.384,56.08,7.136C310.096,85.488,264,167.056,264,256    s46.096,170.512,120.08,216.864C365.824,477.616,347.072,480,328,480z"/>
</svg>