<?xml version="1.0" encoding="utf-8"?>
<!-- Generator: Adobe Illustrator 23.0.2, SVG Export Plug-In . SVG Version: 6.00 Build 0)  -->
<svg version="1.1" id="Слой_1" xmlns="http://www.w3.org/2000/svg" xmlns:xlink="http://www.w3.org/1999/xlink" x="0px" y="0px"
	 viewBox="0 0 24.3 28.3" style="enable-background:new 0 0 24.3 28.3;" xml:space="preserve">
<g>
	<path d="M14.2,20.3c0,1.7-0.1,3.4,0,5.1c0.1,2.3-0.8,3.1-3,3c-3-0.1-5.9,0-8.9,0C0.8,28.3,0,27.5,0,26c0-7.9,0-15.8,0-23.8
		C0,0.8,0.8,0,2.3,0c4,0,8,0,11.9,0c5.3,0,9.7,4.1,10.1,9.4c0.4,5.3-3.5,10-8.7,10.7C15.1,20.2,14.7,20.2,14.2,20.3z M10.1,24.2
		c0-1.9,0-3.8,0-5.7c0-1.6,0.8-2.4,2.4-2.4c1,0,2.1,0,3.1-0.2c3-0.7,4.9-3.6,4.5-6.5c-0.4-3.1-2.9-5.4-6-5.4c-3.2,0-6.4,0-9.6,0
		c-0.2,0-0.3,0-0.5,0c0,6.7,0,13.4,0,20.2C6.1,24.2,8.1,24.2,10.1,24.2z"/>
</g>
</svg>
