<svg xmlns="http://www.w3.org/2000/svg" xmlns:xlink="http://www.w3.org/1999/xlink" version="1.1" id="Layer_1" x="0px" y="0px" viewBox="0 0 810 810" style="enable-background:new 0 0 2500 810;" xml:space="preserve">
<style type="text/css">
	.st0{fill:#FF4500;}
	.st1{fill:#FFFFFF;}
</style>
	<circle class="st0" cx="406.6" cy="405.6" r="402.3"/>
	<path class="st1" d="M674.9,405.6c-1.2-32.4-28.4-57.7-60.9-56.6c-14.4,0.5-28.1,6.4-38.5,16.3c-45.8-31.2-99.6-48.3-154.9-49.5   l26.1-125.5l86.1,18.1c2.4,22.1,22.2,38.1,44.3,35.7c22.1-2.4,38.1-22.2,35.7-44.3s-22.2-38.1-44.3-35.7   c-12.7,1.3-24.1,8.7-30.4,19.7l-98.6-19.7c-6.7-1.5-13.4,2.7-14.9,9.5c0,0.1,0,0.1,0,0.2l-29.7,139.6   c-56,0.9-110.5,18.1-156.9,49.5c-23.6-22.2-60.8-21.1-83,2.6c-22.2,23.6-21.1,60.8,2.6,83c4.6,4.3,9.9,8,15.8,10.6   c-0.4,5.9-0.4,11.8,0,17.7c0,90.1,105,163.4,234.5,163.4s234.5-73.2,234.5-163.4c0.4-5.9,0.4-11.8,0-17.7   C662.6,449,675.3,428.2,674.9,405.6z M272.6,445.9c0-22.2,18.1-40.3,40.3-40.3s40.3,18.1,40.3,40.3c0,22.2-18.1,40.3-40.3,40.3   C290.6,486,272.6,468.1,272.6,445.9z M506.3,556.5c-28.6,21.5-63.6,32.5-99.4,31c-35.8,1.5-70.8-9.5-99.4-31   c-3.8-4.6-3.1-11.5,1.5-15.3c4-3.3,9.7-3.3,13.8,0c24.2,17.7,53.7,26.7,83.7,25.3c30,1.6,59.6-7,84.1-24.5   c4.4-4.3,11.6-4.2,15.9,0.2s4.2,11.6-0.2,15.9l0,0L506.3,556.5L506.3,556.5z M499.1,487.6c-22.2,0-40.3-18.1-40.3-40.3   c0-22.2,18.1-40.3,40.3-40.3c22.2,0,40.3,18.1,40.3,40.3c0.9,22.2-16.4,40.9-38.6,41.8c-0.7,0-1.3,0-2,0L499.1,487.6z"/>
</svg>