<?xml version="1.0" encoding="utf-8"?>
<!-- Generator: Adobe Illustrator 23.0.2, SVG Export Plug-In . SVG Version: 6.00 Build 0)  -->
<svg version="1.1" id="Слой_1" xmlns="http://www.w3.org/2000/svg" xmlns:xlink="http://www.w3.org/1999/xlink" x="0px" y="0px"
	 viewBox="0 0 21.8 17" style="enable-background:new 0 0 21.8 17;" xml:space="preserve">
<g>
	<path d="M17,15.6h-4.8c-0.3,0-0.6-0.3-0.6-0.7v-0.1c0-0.4,0.3-0.7,0.7-0.7h0.9c0.4,0,0.7-0.3,0.7-0.7c0-0.4-0.3-0.7-0.7-0.7h-0.6
		c-0.3-0.1-0.4-0.4-0.4-0.6V12c0-0.4,0.3-0.7,0.7-0.7h7.2c0.3,0,0.6-0.4,0.7-0.7c0-0.4-0.3-0.7-0.7-0.7h-2.2C18,9.4,18,8.9,18,8.4
		C18,3.8,14.3,0,9.6,0C4.9,0,1.2,3.8,1.2,8.4c0,0.5,0,1,0.1,1.5H0.7C0.3,9.9,0,10.2,0,10.6c0,0.4,0.3,0.7,0.7,0.7h2.7
		c0.4,0,0.7,0.3,0.7,0.7v0.1c0,0.3-0.1,0.5-0.4,0.6H3.2c-0.4,0-0.7,0.3-0.7,0.7c0,0.4,0.3,0.7,0.7,0.7h4.3c0.4,0,0.7,0.3,0.7,0.7
		v0.1c0,0.4-0.3,0.7-0.7,0.7H4.6c-0.4,0-0.7,0.3-0.7,0.7c0,0.4,0.3,0.7,0.7,0.7H17c0.4,0,0.7-0.3,0.7-0.7
		C17.7,15.9,17.4,15.6,17,15.6z"/>
	<path d="M17.1,12.7h-1.5c-0.4,0-0.7,0.3-0.7,0.7c0,0.4,0.3,0.7,0.7,0.7h1.5c0.3,0,0.7-0.3,0.7-0.7C17.8,13,17.5,12.7,17.1,12.7z"/>
	<path d="M21.1,12.7h-1.5c-0.4,0-0.7,0.3-0.7,0.7c0,0.4,0.3,0.7,0.7,0.7h1.5c0.4,0,0.7-0.3,0.7-0.7C21.8,13,21.5,12.7,21.1,12.7z"/>
</g>
</svg>
