<svg viewBox="0 0 330 330" width="330" height="330" xmlns="http://www.w3.org/2000/svg"> <defs> <linearGradient id="0dc39f" x1="0%" y1="0%" x2="100%" y2="0%"> <stop offset="0%" stop-color="#0dc39f"/> <stop offset="100%" stop-color="#38ef7d"/> </linearGradient> <mask id="info" maskUnits="userSpaceOnUse" x="0" y="0" width="330" height="330"> <path d="M165,25c37.4,0,72.6,14.6,99,41s41,61.6,41,99s-14.6,72.6-41,99s-61.6,41-99,41s-72.6-14.6-99-41s-41-61.6-41-99s14.6-72.6,41-99S127.6,25,165,25 M165,0C73.9,0,0,73.9,0,165s73.9,165,165,165s165-73.9,165-165S256.1,0,165,0L165,0z" fill="white"/>,<path d="M166.2,260L166.2,260c-7.8,0-14.2-6.3-14.2-14.2v-91.7c0-7.8,6.3-14.2,14.2-14.2h0c7.8,0,14.2,6.3,14.2,14.2v91.7C180.4,253.7,174.1,260,166.2,260z" fill="white"/>,<circle cx="166.2" cy="96.4" r="14.2" fill="white"/> </mask> </defs> <g mask="url(#info)"> <rect className="original" x="0" y="0" width="330" height="330" fill="white" /> <rect className="gradient" x="0" y="0" width="330" height="330" fill="url(#0dc39f)" /> </g> </svg>